<svg width="24" height="24" viewBox="0 0 24 24" fill="none" xmlns="http://www.w3.org/2000/svg">
<g clip-path="url(#clip0_2723_3114)">
<path d="M24 12C24 5.37258 18.6274 0 12 0C5.37258 0 0 5.37258 0 12C0 18.6274 5.37258 24 12 24C18.6274 24 24 18.6274 24 12Z" fill="#666666"/>
<mask id="mask0_2723_3114" style="mask-type:luminance" maskUnits="userSpaceOnUse" x="4" y="4" width="16" height="17">
<path d="M20 4.5H4V20.5H20V4.5Z" fill="white"/>
</mask>
<g mask="url(#mask0_2723_3114)">
<path d="M18.0731 7.33929L12.2524 4.94929C12.0904 4.88263 11.9084 4.88263 11.7458 4.94929L5.92506 7.33929C5.67506 7.44196 5.51172 7.68529 5.51172 7.95596V13.5126C5.51172 16.044 8.71372 18.506 11.7004 20.0286C11.8884 20.1246 12.1098 20.1246 12.2971 20.0286C15.2838 18.506 18.4858 16.044 18.4858 13.5126V7.95596C18.4864 7.68596 18.3231 7.44196 18.0731 7.33929ZM11.9991 8.83129C12.8104 8.83129 13.4678 9.48863 13.4678 10.3C13.4678 11.1113 12.8104 11.768 11.9991 11.768C11.1878 11.768 10.5304 11.1106 10.5304 10.2993C10.5304 9.48796 11.1878 8.83129 11.9991 8.83129ZM11.9991 15.502C10.6811 15.502 8.73572 15.3166 8.73572 14.6213C8.73572 13.926 9.64972 12.4306 11.9991 12.4306C14.3484 12.4306 15.2624 13.926 15.2624 14.6213C15.2624 15.3166 13.3171 15.502 11.9991 15.502Z" fill="white"/>
</g>
</g>
<defs>
<clipPath id="clip0_2723_3114">
<rect width="24" height="24" fill="white"/>
</clipPath>
</defs>
</svg>
