<svg xmlns="http://www.w3.org/2000/svg" width="260" height="260" fill="none"><style>@media (prefers-color-scheme:dark){path{fill:#fff}}</style><path fill="#1A1A1A" fill-rule="evenodd" d="m200.909 135.909-26 8.273c-14.182 4.727-24.818 15.363-29.545 29.545l-9.455 27.182c-2.364 5.909-9.454 5.909-10.636 0l-8.273-26c-4.727-14.182-15.364-24.818-29.546-29.545l-28.363-9.455c-5.91-2.364-5.91-9.454 0-10.636l26-8.273c14.182-4.727 24.818-15.364 29.545-29.546l9.455-28.363c2.364-5.91 9.454-5.91 10.636 0l8.273 26c4.727 14.182 15.364 24.818 29.545 29.545l26 8.273c8.273 3.546 8.273 10.636 2.364 13M130 0C57.91 0 0 57.91 0 130s57.91 130 130 130 130-57.909 130-130C260 57.91 202.091 0 130 0" clip-rule="evenodd"/></svg>