<svg width="28" height="28" viewBox="0 0 28 28" fill="none" xmlns="http://www.w3.org/2000/svg">
    <style>
+     @media (prefers-color-scheme: dark) {
+       circle { fill: #ffffff }
        path { fill: #333333}
+     }
+   </style>
    <g>
        <circle class="container" cx="14" cy="14" r="12" fill="#ffffff"/>
        <path class="icon" fill-rule="evenodd" clip-rule="evenodd" d="M21.6364 14.6364L18.8364 15.5273C17.3091 16.0364 16.1636 17.1818 15.6545 18.7091L14.6364 21.6364C14.3818 22.2727 13.6182 22.2727 13.4909 21.6364L12.6 18.8364C12.0909 17.3091 10.9455 16.1636 9.41818 15.6545L6.36364 14.6364C5.72727 14.3818 5.72727 13.6182 6.36364 13.4909L9.16364 12.6C10.6909 12.0909 11.8364 10.9455 12.3455 9.41818L13.3636 6.36364C13.6182 5.72727 14.3818 5.72727 14.5091 6.36364L15.4 9.16364C15.9091 10.6909 17.0545 11.8364 18.5818 12.3455L21.3818 13.2364C22.2727 13.6182 22.2727 14.3818 21.6364 14.6364ZM14 0C6.23636 0 0 6.23636 0 14C0 21.7636 6.23636 28 14 28C21.7636 28 28 21.7636 28 14C28 6.23636 21.7636 0 14 0Z" fill="#333333"/>
    </g>
</svg>
