<svg width="40" height="40" viewBox="0 0 40 40" fill="none" xmlns="http://www.w3.org/2000/svg">
<rect width="40" height="40" rx="20" fill="#003613"/>
<path d="M19.21 23.3997C19.42 23.6097 19.71 23.7197 19.99 23.7197C20.27 23.7197 20.55 23.6097 20.77 23.3997L26 18.1597C26.43 17.7297 26.43 17.0297 26 16.5997C25.57 16.1697 24.87 16.1697 24.44 16.5997L21.09 19.9497V10.7797C21.09 10.1697 20.6 9.67969 19.99 9.67969C19.38 9.67969 18.89 10.1697 18.89 10.7797V19.9597L15.53 16.6097C15.1 16.1797 14.4 16.1797 13.97 16.6097C13.54 17.0397 13.54 17.7397 13.97 18.1697L19.21 23.3997Z" fill="#01E953"/>
<path d="M29.38 21.0898C28.77 21.0898 28.28 21.5798 28.28 22.1898V26.3998C28.28 27.1198 27.7 27.6998 26.98 27.6998H13C12.28 27.6998 11.7 27.1198 11.7 26.3998V22.1898C11.7 21.5798 11.21 21.0898 10.6 21.0898C9.99 21.0898 9.5 21.5798 9.5 22.1898V26.3998C9.5 28.3298 11.07 29.8998 13 29.8998H26.98C28.91 29.8998 30.48 28.3298 30.48 26.3998V22.1898C30.48 21.5798 29.99 21.0898 29.38 21.0898Z" fill="#01E953"/>
</svg>
