<svg width="24" height="24" viewBox="0 0 24 24" fill="none" xmlns="http://www.w3.org/2000/svg">
<rect width="24" height="24" rx="6" fill="#FE5432"/>
<path d="M17.513 8.07238C17.4722 7.35165 17.2343 6.65586 16.8845 6.05801L16.7475 5.83754C16.702 5.7642 16.6577 5.69119 16.5993 5.61707C16.545 5.54284 16.4895 5.46961 16.4275 5.40094L16.3367 5.29633L16.2394 5.19761C15.9782 4.93552 15.6758 4.71439 15.3518 4.54367C14.7007 4.20167 13.9784 4.06757 13.2845 4.08081C12.588 4.09494 11.9098 4.25253 11.2832 4.52453C10.6579 4.79708 10.077 5.18771 9.59921 5.68585C9.13057 6.16885 8.74227 6.74278 8.47079 7.36011C8.19697 7.97744 8.03719 8.63028 7.95775 9.27543C7.87809 9.92192 7.87486 10.5628 7.91113 11.1919C7.92504 11.4274 7.94596 11.661 7.96988 11.8937C7.77584 11.8083 7.5848 11.7152 7.3971 11.6147C7.27271 11.5471 7.00757 11.7951 6.80485 12.1686C6.60224 12.5419 6.53893 12.8994 6.66332 12.9671C7.24923 13.2727 7.86718 13.5215 8.50873 13.6957L8.99372 13.8115L9.48606 13.8931C9.56784 13.9085 9.65084 13.9156 9.73373 13.9228L9.84677 13.9331C9.92399 14.9073 10.0743 15.8737 10.3337 16.833C10.4665 17.3148 10.6259 17.7949 10.8494 18.273C10.9621 18.512 11.0901 18.7508 11.2566 18.9876C11.4231 19.2224 11.6229 19.4636 11.9292 19.6682C12.0047 19.7192 12.0912 19.7651 12.1807 19.8066C12.228 19.8259 12.2759 19.8443 12.3238 19.8617C12.3852 19.8806 12.4563 19.8971 12.523 19.9094C12.5987 19.9171 12.6745 19.9231 12.7522 19.9181C12.8306 19.9091 12.9127 19.9011 12.9856 19.8755C13.0602 19.852 13.1349 19.8238 13.1947 19.7879C13.2262 19.7705 13.2572 19.7521 13.2876 19.733C13.3148 19.7141 13.3393 19.6946 13.3648 19.6745C13.5636 19.5116 13.667 19.3452 13.7512 19.1942C13.834 19.0416 13.8847 18.9009 13.9329 18.7608C14.0209 18.4843 14.0724 18.2217 14.1103 17.9628C14.1473 17.7043 14.1687 17.4502 14.1805 17.1981C14.2034 16.6941 14.1899 16.1973 14.1481 15.7037C14.1088 15.211 14.0334 14.7173 13.9407 14.2377C13.8805 13.9339 13.8091 13.631 13.7286 13.3303C13.931 13.2433 14.1302 13.1481 14.3248 13.0432C14.9127 12.7252 15.4635 12.3288 15.9444 11.8476C16.4241 11.3667 16.8354 10.7995 17.1196 10.1559C17.4042 9.51471 17.5537 8.79254 17.513 8.07238ZM11.262 12.455C11.2748 12.0142 11.3087 11.577 11.3685 11.1494C11.3839 11.0392 11.4012 10.9296 11.4205 10.821C11.6163 11.1734 11.7955 11.5329 11.9528 11.9011C12.0127 12.0407 12.0685 12.1817 12.1223 12.3235C11.839 12.3867 11.5512 12.4302 11.262 12.455ZM12.7123 14.4691C12.7902 14.9149 12.8498 15.3538 12.8778 15.8002C12.9081 16.2448 12.9118 16.6911 12.8845 17.1268C12.8706 17.3445 12.8484 17.5595 12.815 17.7663C12.7818 17.9724 12.7366 18.1718 12.6786 18.3429C12.6581 18.3989 12.6367 18.4539 12.615 18.5005C12.5396 18.4347 12.4524 18.3342 12.3736 18.215C12.2715 18.0651 12.1777 17.8868 12.0934 17.6987C11.9244 17.3211 11.7908 16.903 11.6813 16.4761C11.4741 15.6559 11.3509 14.7971 11.2927 13.938C11.7182 13.9014 12.1407 13.8308 12.5549 13.7267C12.6143 13.9721 12.6672 14.2195 12.7123 14.4691ZM15.8477 9.5846C15.6379 10.044 15.3258 10.4696 14.948 10.8383C14.5695 11.2073 14.1258 11.5192 13.6483 11.7691C13.526 11.8331 13.4014 11.8927 13.275 11.948C13.2049 11.7697 13.1318 11.5924 13.0531 11.4177C12.726 10.6859 12.325 9.99359 11.8832 9.33942C11.9652 9.18551 12.0552 9.04996 12.1508 8.9449L12.1504 8.94445C12.2396 8.8365 12.0612 8.52399 11.7483 8.24221C11.4326 7.95786 11.0998 7.81273 11.0051 7.9179C11.0042 7.9189 11.0039 7.92002 11.0031 7.92102L11.0027 7.92069C10.7914 8.16397 10.6341 8.42072 10.5068 8.67602C10.3795 8.93188 10.2841 9.18773 10.2041 9.44226C10.0457 9.9513 9.9527 10.4551 9.89094 10.9551C9.83109 11.4469 9.80171 11.9353 9.7957 12.4212C9.76433 12.4173 9.73306 12.4126 9.70202 12.406L9.30158 12.3346L9.18732 12.3056C9.07094 11.3305 9.02443 10.3575 9.1496 9.43046C9.22504 8.87857 9.36589 8.34804 9.58864 7.86337C9.8105 7.37825 10.1149 6.94021 10.492 6.56082C11.2166 5.82441 12.2769 5.38514 13.3023 5.37891C13.8133 5.37613 14.3132 5.48341 14.731 5.71111C14.9395 5.82519 15.1276 5.96764 15.2905 6.13558L15.3517 6.19846L15.408 6.26623C15.4473 6.30975 15.4818 6.35771 15.5159 6.40601C15.5517 6.45042 15.5843 6.50751 15.6173 6.56327L15.7174 6.72876C15.9696 7.17537 16.1233 7.65737 16.1449 8.14583C16.1641 8.63417 16.0581 9.12552 15.8477 9.5846Z" fill="black"/>
</svg>
