<svg xmlns="http://www.w3.org/2000/svg" xmlns:xlink="http://www.w3.org/1999/xlink">
  <defs>
		<symbol id="chevron" viewBox="0 0 14 14">
			<path fill-rule="evenodd" clip-rule="evenodd" d="M2.275 5.03125C2.275 4.83 2.35375 4.62875 2.5025 4.47125C2.65008 4.32431 2.84986 4.24181 3.05813 4.24181C3.26639 4.24181 3.46617 4.32431 3.61375 4.47125L7 7.8575L10.3775 4.47125C10.5251 4.32431 10.7249 4.24181 10.9331 4.24181C11.1414 4.24181 11.3412 4.32431 11.4888 4.47125C11.6357 4.61883 11.7182 4.81861 11.7182 5.02687C11.7182 5.23513 11.6357 5.43491 11.4888 5.5825L7.55125 9.52C7.40367 9.66694 7.20389 9.74943 6.99563 9.74943C6.78737 9.74943 6.58758 9.66694 6.44 9.52L2.5025 5.5825C2.35375 5.43375 2.275 5.2325 2.275 5.03125Z" fill="currentColor"/>
		</symbol>
		<symbol id="copy" viewBox="0 0 14 14">
			<path fill-rule="evenodd" clip-rule="evenodd" d="M10.9 2.4C11.3083 2.4 11.6 2.69167 11.6 3.1L11.6 7.3C11.6 7.70833 11.3083 8 10.9 8L6.7 8C6.29167 8 6 7.70833 6 7.3L6 3.1C6 2.69167 6.29167 2.4 6.7 2.4L10.9 2.4ZM4.6 3.1L4.6 7.3C4.6 8.46667 5.53333 9.4 6.7 9.4L10.9 9.4C12.0667 9.4 13 8.46667 13 7.3L13 3.1C13 1.93333 12.0667 1 10.9 1L6.7 1C5.53333 1 4.6 1.93333 4.6 3.1ZM8.91667 10.45L8.91667 11.3833C8.91667 12.55 7.98334 13.4833 6.81667 13.4833L2.61667 13.4833C1.45 13.4833 0.516671 12.55 0.516671 11.3833L0.516671 7.18333C0.516671 6.01666 1.45 5.08333 2.61667 5.08333L3.43334 5.08333L3.43334 6.48333L2.61667 6.48333C2.20834 6.48333 1.91667 6.775 1.91667 7.18333L1.91667 11.3833C1.91667 11.7917 2.20834 12.0833 2.61667 12.0833L6.81667 12.0833C7.225 12.0833 7.51667 11.7917 7.51667 11.3833L7.51667 10.45L8.91667 10.45Z" fill="currentColor"/>
		</symbol>
		<svg id="check" viewBox="0 0 14 14">
			<path fill-rule="evenodd" clip-rule="evenodd" d="M10.4541 6.37542L7.19733 9.63275C7.08762 9.74172 6.93926 9.80287 6.78463 9.80287C6.62999 9.80287 6.48163 9.74172 6.37192 9.63275L4.37925 7.64008C4.32509 7.58592 4.28213 7.52163 4.25282 7.45087C4.22351 7.3801 4.20842 7.30426 4.20842 7.22767C4.20842 7.07298 4.26987 6.92463 4.37925 6.81525C4.48863 6.70587 4.63698 6.64442 4.79167 6.64442C4.94635 6.64442 5.0947 6.70587 5.20408 6.81525L6.78433 8.3955L9.62925 5.55058C9.68341 5.49642 9.74771 5.45346 9.81847 5.42415C9.88923 5.39484 9.96507 5.37976 10.0417 5.37976C10.1183 5.37976 10.1941 5.39484 10.2649 5.42415C10.3356 5.45346 10.3999 5.49642 10.4541 5.55058C10.5082 5.60474 10.5512 5.66904 10.5805 5.7398C10.6098 5.81056 10.6249 5.88641 10.6249 5.963C10.6249 6.03959 10.6098 6.11544 10.5805 6.1862C10.5512 6.25696 10.5082 6.32126 10.4541 6.37542M7.41667 1C3.87292 1 1 3.87292 1 7.41667C1 10.9604 3.87292 13.8333 7.41667 13.8333C10.9604 13.8333 13.8333 10.9604 13.8333 7.41667C13.8333 3.87292 10.9604 1 7.41667 1Z" fill="currentColor"/>
		</svg>
  </defs>
</svg>