<svg xmlns="http://www.w3.org/2000/svg" xmlns:xlink="http://www.w3.org/1999/xlink">
  <defs>
		<symbol id="chevron" viewBox="0 0 14 14">
			<path fill-rule="evenodd" clip-rule="evenodd" d="M2.275 5.03125C2.275 4.83 2.35375 4.62875 2.5025 4.47125C2.65008 4.32431 2.84986 4.24181 3.05813 4.24181C3.26639 4.24181 3.46617 4.32431 3.61375 4.47125L7 7.8575L10.3775 4.47125C10.5251 4.32431 10.7249 4.24181 10.9331 4.24181C11.1414 4.24181 11.3412 4.32431 11.4888 4.47125C11.6357 4.61883 11.7182 4.81861 11.7182 5.02687C11.7182 5.23513 11.6357 5.43491 11.4888 5.5825L7.55125 9.52C7.40367 9.66694 7.20389 9.74943 6.99563 9.74943C6.78737 9.74943 6.58758 9.66694 6.44 9.52L2.5025 5.5825C2.35375 5.43375 2.275 5.2325 2.275 5.03125Z" fill="currentColor"/>
		</symbol>
		<symbol id="copy" viewBox="0 0 14 14">
			<path fill-rule="evenodd" clip-rule="evenodd" d="M10.9 2.4C11.3083 2.4 11.6 2.69167 11.6 3.1L11.6 7.3C11.6 7.70833 11.3083 8 10.9 8L6.7 8C6.29167 8 6 7.70833 6 7.3L6 3.1C6 2.69167 6.29167 2.4 6.7 2.4L10.9 2.4ZM4.6 3.1L4.6 7.3C4.6 8.46667 5.53333 9.4 6.7 9.4L10.9 9.4C12.0667 9.4 13 8.46667 13 7.3L13 3.1C13 1.93333 12.0667 1 10.9 1L6.7 1C5.53333 1 4.6 1.93333 4.6 3.1ZM8.91667 10.45L8.91667 11.3833C8.91667 12.55 7.98334 13.4833 6.81667 13.4833L2.61667 13.4833C1.45 13.4833 0.516671 12.55 0.516671 11.3833L0.516671 7.18333C0.516671 6.01666 1.45 5.08333 2.61667 5.08333L3.43334 5.08333L3.43334 6.48333L2.61667 6.48333C2.20834 6.48333 1.91667 6.775 1.91667 7.18333L1.91667 11.3833C1.91667 11.7917 2.20834 12.0833 2.61667 12.0833L6.81667 12.0833C7.225 12.0833 7.51667 11.7917 7.51667 11.3833L7.51667 10.45L8.91667 10.45Z" fill="currentColor"/>
		</symbol>
		<symbol id="check" viewBox="0 0 14 14">
			<path fill-rule="evenodd" clip-rule="evenodd" d="M10.4541 6.37542L7.19733 9.63275C7.08762 9.74172 6.93926 9.80287 6.78463 9.80287C6.62999 9.80287 6.48163 9.74172 6.37192 9.63275L4.37925 7.64008C4.32509 7.58592 4.28213 7.52163 4.25282 7.45087C4.22351 7.3801 4.20842 7.30426 4.20842 7.22767C4.20842 7.07298 4.26987 6.92463 4.37925 6.81525C4.48863 6.70587 4.63698 6.64442 4.79167 6.64442C4.94635 6.64442 5.0947 6.70587 5.20408 6.81525L6.78433 8.3955L9.62925 5.55058C9.68341 5.49642 9.74771 5.45346 9.81847 5.42415C9.88923 5.39484 9.96507 5.37976 10.0417 5.37976C10.1183 5.37976 10.1941 5.39484 10.2649 5.42415C10.3356 5.45346 10.3999 5.49642 10.4541 5.55058C10.5082 5.60474 10.5512 5.66904 10.5805 5.7398C10.6098 5.81056 10.6249 5.88641 10.6249 5.963C10.6249 6.03959 10.6098 6.11544 10.5805 6.1862C10.5512 6.25696 10.5082 6.32126 10.4541 6.37542M7.41667 1C3.87292 1 1 3.87292 1 7.41667C1 10.9604 3.87292 13.8333 7.41667 13.8333C10.9604 13.8333 13.8333 10.9604 13.8333 7.41667C13.8333 3.87292 10.9604 1 7.41667 1Z" fill="currentColor"/>
		</symbol>
		<symbol id="external-link" viewBox="0 0 14 14">
			<path fill-rule="evenodd" clip-rule="evenodd" d="M8.95051 2.40253C8.91941 2.32736 8.87365 2.25682 8.81322 2.19529C8.81041 2.19243 8.80757 2.18959 8.80471 2.18678C8.68704 2.07125 8.52575 2 8.34783 2H8.34773H2.65217C2.29199 2 2 2.29199 2 2.65217C2 3.01236 2.29199 3.30434 2.65217 3.30434H6.77334L2.19102 7.88667C1.93633 8.14136 1.93633 8.55429 2.19102 8.80898C2.44571 9.06367 2.85864 9.06367 3.11333 8.80898L7.69566 4.22666V8.34783C7.69566 8.70801 7.98764 9 8.34783 9C8.70801 9 9 8.70801 9 8.34783V2.65257V2.65217C9 2.65152 9 2.65087 9 2.65022C8.99974 2.5625 8.98217 2.47886 8.95051 2.40253Z" fill="currentColor"/>
		</symbol>
		<symbol id="cross" viewBox="0 0 14 14">
			<path fill-rule="evenodd" clip-rule="evenodd" d="M8.1015 7.00083L11.7714 3.33089C11.8438 3.25853 11.9013 3.17261 11.9405 3.07804C11.9797 2.98348 11.9999 2.88212 11.9999 2.77975C11.9999 2.67738 11.9798 2.57601 11.9407 2.48142C11.9015 2.38684 11.8441 2.30089 11.7718 2.22848C11.6994 2.15607 11.6135 2.09863 11.5189 2.05943C11.4244 2.02022 11.323 2.00003 11.2206 2C11.1183 1.99997 11.0169 2.0201 10.9223 2.05925C10.8277 2.0984 10.7418 2.15579 10.6694 2.22815L6.99941 5.89874L3.32882 2.22815C3.18098 2.09007 2.98528 2.01483 2.78301 2.0183C2.58075 2.02178 2.38775 2.10371 2.24474 2.2468C2.10174 2.38989 2.01993 2.58294 2.01657 2.7852C2.01321 2.98747 2.08857 3.18313 2.22674 3.33089L5.89733 7.00083L2.22674 10.6708C2.11826 10.78 2.04449 10.9189 2.01473 11.0699C1.98496 11.221 2.00053 11.3774 2.05946 11.5197C2.11839 11.6619 2.21805 11.7835 2.34592 11.8692C2.47379 11.955 2.62416 12.001 2.77811 12.0015C2.97748 12.0015 3.17686 11.9255 3.32882 11.7735L6.99941 8.10291L10.6694 11.7735C10.7416 11.846 10.8275 11.9036 10.9221 11.9428C11.0166 11.9821 11.118 12.0023 11.2204 12.0023C11.3228 12.0023 11.4242 11.9821 11.5187 11.9428C11.6133 11.9036 11.6992 11.846 11.7714 11.7735C11.8439 11.7011 11.9014 11.6152 11.9406 11.5206C11.9798 11.426 12 11.3245 12 11.2221C12 11.1197 11.9798 11.0183 11.9406 10.9237C11.9014 10.8291 11.8439 10.7431 11.7714 10.6708L8.1015 7.00083Z" fill="currentColor"/>
		</symbol>
		<symbol id="refresh" viewBox="0 0 14 14">
			<path fill-rule="evenodd" clip-rule="evenodd" d="M12.144 7.11159C11.9611 7.07975 11.7731 7.12184 11.6213 7.2286C11.4694 7.33537 11.3662 7.49807 11.3343 7.68092C11.1527 8.72437 10.6081 9.67005 9.79678 10.3509C8.98543 11.0317 7.95955 11.4038 6.90042 11.4014C4.41892 11.4014 2.4 9.3825 2.4 6.90042C2.4 4.41892 4.41892 2.4 6.90042 2.4C8.02858 2.4 9.08967 2.8165 9.91917 3.569L9.3405 4.14767C9.26479 4.22309 9.2115 4.31803 9.18654 4.42193C9.16158 4.52583 9.16594 4.63462 9.19913 4.73619C9.23233 4.83777 9.29305 4.92814 9.37455 4.99725C9.45604 5.06637 9.55512 5.11151 9.66075 5.12767L12.1177 5.50684C12.2075 5.52067 12.2993 5.51315 12.3856 5.48486C12.4719 5.45658 12.5503 5.40835 12.6144 5.34407C12.6786 5.2798 12.7267 5.2013 12.7548 5.11494C12.783 5.02859 12.7903 4.93682 12.7763 4.84709L12.3977 2.39067C12.3815 2.28511 12.3363 2.18612 12.2672 2.10469C12.1981 2.02325 12.1078 1.96255 12.0063 1.92932C11.9048 1.89609 11.796 1.89163 11.6922 1.91643C11.5883 1.94124 11.4933 1.99434 11.4177 2.06984L10.9091 2.57909C9.82192 1.5627 8.3887 0.998128 6.90042 1C3.64717 1 1 3.64717 1 6.90042C1 10.1543 3.64717 12.8008 6.90042 12.8008C9.77508 12.8008 12.2192 10.7487 12.7133 7.92125C12.7452 7.73839 12.7031 7.55037 12.5963 7.39853C12.4896 7.2467 12.3269 7.14348 12.144 7.11159" fill="currentColor"/>
		</symbol>
		<symbol id="menu" viewBox="0 0 14 14">
			<path fill-rule="evenodd" clip-rule="evenodd" d="M2.7 3.4H12.0333C12.219 3.4 12.397 3.32625 12.5283 3.19497C12.6596 3.0637 12.7333 2.88565 12.7333 2.7C12.7333 2.51435 12.6596 2.3363 12.5283 2.20503C12.397 2.07375 12.219 2 12.0333 2H2.7C2.51435 2 2.3363 2.07375 2.20503 2.20503C2.07375 2.3363 2 2.51435 2 2.7C2 2.88565 2.07375 3.0637 2.20503 3.19497C2.3363 3.32625 2.51435 3.4 2.7 3.4M12.0333 6.08333H2.7C2.51435 6.08333 2.3363 6.15708 2.20503 6.28836C2.07375 6.41963 2 6.59768 2 6.78333C2 6.96898 2.07375 7.14703 2.20503 7.27831C2.3363 7.40958 2.51435 7.48333 2.7 7.48333H12.0333C12.219 7.48333 12.397 7.40958 12.5283 7.27831C12.6596 7.14703 12.7333 6.96898 12.7333 6.78333C12.7333 6.59768 12.6596 6.41963 12.5283 6.28836C12.397 6.15708 12.219 6.08333 12.0333 6.08333ZM12.0333 10.1667H2.7C2.60807 10.1667 2.51705 10.1848 2.43212 10.22C2.34719 10.2551 2.27003 10.3067 2.20503 10.3717C2.14002 10.4367 2.08846 10.5139 2.05328 10.5988C2.01811 10.6837 2 10.7747 2 10.8667C2 10.9586 2.01811 11.0496 2.05328 11.1345C2.08846 11.2195 2.14002 11.2966 2.20503 11.3616C2.27003 11.4266 2.34719 11.4782 2.43212 11.5134C2.51705 11.5486 2.60807 11.5667 2.7 11.5667H12.0333C12.1253 11.5667 12.2163 11.5486 12.3012 11.5134C12.3861 11.4782 12.4633 11.4266 12.5283 11.3616C12.5933 11.2966 12.6449 11.2195 12.6801 11.1345C12.7152 11.0496 12.7333 10.9586 12.7333 10.8667C12.7333 10.7747 12.7152 10.6837 12.6801 10.5988C12.6449 10.5139 12.5933 10.4367 12.5283 10.3717C12.4633 10.3067 12.3861 10.2551 12.3012 10.22C12.2163 10.1848 12.1253 10.1667 12.0333 10.1667" fill="currentColor"/>
		</symbol>
  </defs>
</svg>