<svg xmlns="http://www.w3.org/2000/svg" xmlns:xlink="http://www.w3.org/1999/xlink">
  <defs>
		<symbol id="chevron" viewBox="0 0 14 14">
			<path fill-rule="evenodd" clip-rule="evenodd" d="M2.275 5.03125C2.275 4.83 2.35375 4.62875 2.5025 4.47125C2.65008 4.32431 2.84986 4.24181 3.05813 4.24181C3.26639 4.24181 3.46617 4.32431 3.61375 4.47125L7 7.8575L10.3775 4.47125C10.5251 4.32431 10.7249 4.24181 10.9331 4.24181C11.1414 4.24181 11.3412 4.32431 11.4888 4.47125C11.6357 4.61883 11.7182 4.81861 11.7182 5.02687C11.7182 5.23513 11.6357 5.43491 11.4888 5.5825L7.55125 9.52C7.40367 9.66694 7.20389 9.74943 6.99563 9.74943C6.78737 9.74943 6.58758 9.66694 6.44 9.52L2.5025 5.5825C2.35375 5.43375 2.275 5.2325 2.275 5.03125Z" fill="currentColor"/>
		</symbol>
		<symbol id="copy" viewBox="0 0 14 14">
			<path fill-rule="evenodd" clip-rule="evenodd" d="M10.9 2.4C11.3083 2.4 11.6 2.69167 11.6 3.1L11.6 7.3C11.6 7.70833 11.3083 8 10.9 8L6.7 8C6.29167 8 6 7.70833 6 7.3L6 3.1C6 2.69167 6.29167 2.4 6.7 2.4L10.9 2.4ZM4.6 3.1L4.6 7.3C4.6 8.46667 5.53333 9.4 6.7 9.4L10.9 9.4C12.0667 9.4 13 8.46667 13 7.3L13 3.1C13 1.93333 12.0667 1 10.9 1L6.7 1C5.53333 1 4.6 1.93333 4.6 3.1ZM8.91667 10.45L8.91667 11.3833C8.91667 12.55 7.98334 13.4833 6.81667 13.4833L2.61667 13.4833C1.45 13.4833 0.516671 12.55 0.516671 11.3833L0.516671 7.18333C0.516671 6.01666 1.45 5.08333 2.61667 5.08333L3.43334 5.08333L3.43334 6.48333L2.61667 6.48333C2.20834 6.48333 1.91667 6.775 1.91667 7.18333L1.91667 11.3833C1.91667 11.7917 2.20834 12.0833 2.61667 12.0833L6.81667 12.0833C7.225 12.0833 7.51667 11.7917 7.51667 11.3833L7.51667 10.45L8.91667 10.45Z" fill="currentColor"/>
		</symbol>
		<symbol id="check" viewBox="0 0 14 14">
			<path fill-rule="evenodd" clip-rule="evenodd" d="M10.0374 5.95875L6.78066 9.21608C6.67095 9.32505 6.52259 9.38621 6.36795 9.38621C6.21332 9.38621 6.06496 9.32505 5.95525 9.21608L3.96258 7.22342C3.90842 7.16926 3.86546 7.10496 3.83615 7.0342C3.80684 6.96344 3.79175 6.88759 3.79175 6.811C3.79175 6.65631 3.8532 6.50796 3.96258 6.39858C4.07196 6.2892 4.22031 6.22776 4.375 6.22776C4.52968 6.22776 4.67803 6.2892 4.78741 6.39858L6.36766 7.97883L9.21258 5.13392C9.26674 5.07976 9.33103 5.0368 9.4018 5.00749C9.47256 4.97818 9.5484 4.96309 9.625 4.96309C9.70159 4.96309 9.77743 4.97818 9.84819 5.00749C9.91896 5.0368 9.98325 5.07976 10.0374 5.13392C10.0916 5.18808 10.1345 5.25237 10.1638 5.32314C10.1932 5.3939 10.2082 5.46974 10.2082 5.54633C10.2082 5.62293 10.1932 5.69877 10.1638 5.76953C10.1345 5.8403 10.0916 5.90459 10.0374 5.95875ZM7 0.583334C3.45625 0.583334 0.583328 3.45625 0.583328 7C0.583328 10.5438 3.45625 13.4167 7 13.4167C10.5437 13.4167 13.4167 10.5438 13.4167 7C13.4167 3.45625 10.5437 0.583334 7 0.583334Z" fill="currentColor"/>
		</symbol>
		<symbol id="external-link" viewBox="0 0 14 14">
			<path fill-rule="evenodd" clip-rule="evenodd" d="M8.95051 2.40253C8.91941 2.32736 8.87365 2.25682 8.81322 2.19529C8.81041 2.19243 8.80757 2.18959 8.80471 2.18678C8.68704 2.07125 8.52575 2 8.34783 2H8.34773H2.65217C2.29199 2 2 2.29199 2 2.65217C2 3.01236 2.29199 3.30434 2.65217 3.30434H6.77334L2.19102 7.88667C1.93633 8.14136 1.93633 8.55429 2.19102 8.80898C2.44571 9.06367 2.85864 9.06367 3.11333 8.80898L7.69566 4.22666V8.34783C7.69566 8.70801 7.98764 9 8.34783 9C8.70801 9 9 8.70801 9 8.34783V2.65257V2.65217C9 2.65152 9 2.65087 9 2.65022C8.99974 2.5625 8.98217 2.47886 8.95051 2.40253Z" fill="currentColor"/>
		</symbol>
		<symbol id="cross" viewBox="0 0 14 14">
			<path fill-rule="evenodd" clip-rule="evenodd" d="M8.1015 7.00083L11.7714 3.33089C11.8438 3.25853 11.9013 3.17261 11.9405 3.07804C11.9797 2.98348 11.9999 2.88212 11.9999 2.77975C11.9999 2.67738 11.9798 2.57601 11.9407 2.48142C11.9015 2.38684 11.8441 2.30089 11.7718 2.22848C11.6994 2.15607 11.6135 2.09863 11.5189 2.05943C11.4244 2.02022 11.323 2.00003 11.2206 2C11.1183 1.99997 11.0169 2.0201 10.9223 2.05925C10.8277 2.0984 10.7418 2.15579 10.6694 2.22815L6.99941 5.89874L3.32882 2.22815C3.18098 2.09007 2.98528 2.01483 2.78301 2.0183C2.58075 2.02178 2.38775 2.10371 2.24474 2.2468C2.10174 2.38989 2.01993 2.58294 2.01657 2.7852C2.01321 2.98747 2.08857 3.18313 2.22674 3.33089L5.89733 7.00083L2.22674 10.6708C2.11826 10.78 2.04449 10.9189 2.01473 11.0699C1.98496 11.221 2.00053 11.3774 2.05946 11.5197C2.11839 11.6619 2.21805 11.7835 2.34592 11.8692C2.47379 11.955 2.62416 12.001 2.77811 12.0015C2.97748 12.0015 3.17686 11.9255 3.32882 11.7735L6.99941 8.10291L10.6694 11.7735C10.7416 11.846 10.8275 11.9036 10.9221 11.9428C11.0166 11.9821 11.118 12.0023 11.2204 12.0023C11.3228 12.0023 11.4242 11.9821 11.5187 11.9428C11.6133 11.9036 11.6992 11.846 11.7714 11.7735C11.8439 11.7011 11.9014 11.6152 11.9406 11.5206C11.9798 11.426 12 11.3245 12 11.2221C12 11.1197 11.9798 11.0183 11.9406 10.9237C11.9014 10.8291 11.8439 10.7431 11.7714 10.6708L8.1015 7.00083Z" fill="currentColor"/>
		</symbol>
		<symbol id="rotate" viewBox="0 0 14 14">
			<path fill-rule="evenodd" clip-rule="evenodd" d="M12.144 7.11159C11.9611 7.07975 11.7731 7.12184 11.6213 7.2286C11.4694 7.33537 11.3662 7.49807 11.3343 7.68092C11.1527 8.72437 10.6081 9.67005 9.79678 10.3509C8.98543 11.0317 7.95955 11.4038 6.90042 11.4014C4.41892 11.4014 2.4 9.3825 2.4 6.90042C2.4 4.41892 4.41892 2.4 6.90042 2.4C8.02858 2.4 9.08967 2.8165 9.91917 3.569L9.3405 4.14767C9.26479 4.22309 9.2115 4.31803 9.18654 4.42193C9.16158 4.52583 9.16594 4.63462 9.19913 4.73619C9.23233 4.83777 9.29305 4.92814 9.37455 4.99725C9.45604 5.06637 9.55512 5.11151 9.66075 5.12767L12.1177 5.50684C12.2075 5.52067 12.2993 5.51315 12.3856 5.48486C12.4719 5.45658 12.5503 5.40835 12.6144 5.34407C12.6786 5.2798 12.7267 5.2013 12.7548 5.11494C12.783 5.02859 12.7903 4.93682 12.7763 4.84709L12.3977 2.39067C12.3815 2.28511 12.3363 2.18612 12.2672 2.10469C12.1981 2.02325 12.1078 1.96255 12.0063 1.92932C11.9048 1.89609 11.796 1.89163 11.6922 1.91643C11.5883 1.94124 11.4933 1.99434 11.4177 2.06984L10.9091 2.57909C9.82192 1.5627 8.3887 0.998128 6.90042 1C3.64717 1 1 3.64717 1 6.90042C1 10.1543 3.64717 12.8008 6.90042 12.8008C9.77508 12.8008 12.2192 10.7487 12.7133 7.92125C12.7452 7.73839 12.7031 7.55037 12.5963 7.39853C12.4896 7.2467 12.3269 7.14348 12.144 7.11159" fill="currentColor"/>
		</symbol>
		<symbol id="menu" viewBox="0 0 14 14">
			<path fill-rule="evenodd" clip-rule="evenodd" d="M2.7 3.4H12.0333C12.219 3.4 12.397 3.32625 12.5283 3.19497C12.6596 3.0637 12.7333 2.88565 12.7333 2.7C12.7333 2.51435 12.6596 2.3363 12.5283 2.20503C12.397 2.07375 12.219 2 12.0333 2H2.7C2.51435 2 2.3363 2.07375 2.20503 2.20503C2.07375 2.3363 2 2.51435 2 2.7C2 2.88565 2.07375 3.0637 2.20503 3.19497C2.3363 3.32625 2.51435 3.4 2.7 3.4M12.0333 6.08333H2.7C2.51435 6.08333 2.3363 6.15708 2.20503 6.28836C2.07375 6.41963 2 6.59768 2 6.78333C2 6.96898 2.07375 7.14703 2.20503 7.27831C2.3363 7.40958 2.51435 7.48333 2.7 7.48333H12.0333C12.219 7.48333 12.397 7.40958 12.5283 7.27831C12.6596 7.14703 12.7333 6.96898 12.7333 6.78333C12.7333 6.59768 12.6596 6.41963 12.5283 6.28836C12.397 6.15708 12.219 6.08333 12.0333 6.08333ZM12.0333 10.1667H2.7C2.60807 10.1667 2.51705 10.1848 2.43212 10.22C2.34719 10.2551 2.27003 10.3067 2.20503 10.3717C2.14002 10.4367 2.08846 10.5139 2.05328 10.5988C2.01811 10.6837 2 10.7747 2 10.8667C2 10.9586 2.01811 11.0496 2.05328 11.1345C2.08846 11.2195 2.14002 11.2966 2.20503 11.3616C2.27003 11.4266 2.34719 11.4782 2.43212 11.5134C2.51705 11.5486 2.60807 11.5667 2.7 11.5667H12.0333C12.1253 11.5667 12.2163 11.5486 12.3012 11.5134C12.3861 11.4782 12.4633 11.4266 12.5283 11.3616C12.5933 11.2966 12.6449 11.2195 12.6801 11.1345C12.7152 11.0496 12.7333 10.9586 12.7333 10.8667C12.7333 10.7747 12.7152 10.6837 12.6801 10.5988C12.6449 10.5139 12.5933 10.4367 12.5283 10.3717C12.4633 10.3067 12.3861 10.2551 12.3012 10.22C12.2163 10.1848 12.1253 10.1667 12.0333 10.1667" fill="currentColor"/>
		</symbol>
		<symbol id="conversion" viewBox="0 0 14 14">
			<path d="M4.24942 12.8653C4.20696 12.9078 4.1558 12.9415 4.09919 12.9649C3.98659 13.0117 3.85922 13.0117 3.74661 12.9649C3.69 12.9415 3.63899 12.9078 3.59653 12.8653L1.13522 10.404C0.954926 10.2237 0.954926 9.93141 1.13522 9.75113C1.31551 9.57083 1.60781 9.57083 1.7881 9.75113L3.46178 11.4248L3.46178 3.9246C3.46178 3.66985 3.66853 3.4631 3.92328 3.4631C4.17803 3.4631 4.38478 3.66985 4.38478 3.9246L4.38478 11.4248L6.05845 9.75113C6.23874 9.57083 6.53104 9.57083 6.71133 9.75113C6.80117 9.84096 6.84669 9.95913 6.84669 10.0773C6.84669 10.1954 6.80178 10.3136 6.71133 10.4034L4.24942 12.8653ZM9.89992 1.03755C9.84329 1.06088 9.79227 1.0947 9.74981 1.13716L7.28852 3.59845C7.1082 3.77876 7.1082 4.07102 7.28852 4.25134C7.46876 4.43158 7.76109 4.43158 7.94141 4.25134L9.61505 2.57762L9.61505 10.0779C9.61505 10.3326 9.8218 10.5394 10.0765 10.5394C10.3313 10.5394 10.538 10.3326 10.538 10.0779L10.538 2.57762L12.2118 4.25134C12.392 4.43158 12.6843 4.43158 12.8647 4.25134C12.9544 4.16147 13 4.04333 13 3.92519C13 3.80705 12.9551 3.6889 12.8647 3.59904L10.4033 1.13775C10.3608 1.09529 10.3098 1.06147 10.2532 1.03814C10.14 0.990736 10.0131 0.990736 9.89992 1.03755Z" fill="currentColor"/>
		</symbol>
		<symbol id="arrow" viewBox="0 0 14 14">
			<path fill-rule="evenodd" clip-rule="evenodd" d="M2.25605 6.29985H10.4437L7.26397 3.1201C6.99038 2.84652 6.99038 2.40319 7.26397 2.13019C7.53755 1.8566 7.9803 1.8566 8.25388 2.13019L12.6289 6.50519C12.6306 6.50635 12.6312 6.50869 12.633 6.51044C12.6954 6.57402 12.7456 6.64927 12.78 6.7321C12.8511 6.9036 12.8511 7.0961 12.78 7.2676C12.7456 7.35102 12.6954 7.42569 12.633 7.48927C12.6312 7.49102 12.6306 7.49335 12.6289 7.4951L8.25388 11.8701C8.11738 12.0066 7.9383 12.0749 7.75922 12.0749C7.57955 12.0749 7.40047 12.0066 7.26397 11.8701C6.99038 11.5965 6.99038 11.1532 7.26397 10.8802L10.4437 7.69985H2.25605C1.8693 7.69985 1.55605 7.3866 1.55605 6.99985C1.55605 6.61369 1.8693 6.29985 2.25605 6.29985Z" fill="currentColor"/>
		</symbol>
		<symbol id="info" viewBox="0 0 14 14">
			<path fill-rule="evenodd" clip-rule="evenodd" d="M7.00016 5.36671C6.81451 5.36671 6.63646 5.29296 6.50519 5.16168C6.37391 5.03041 6.30016 4.85236 6.30016 4.66671C6.30016 4.48106 6.37391 4.30301 6.50519 4.17173C6.63646 4.04046 6.81451 3.96671 7.00016 3.96671C7.18581 3.96671 7.36386 4.04046 7.49514 4.17173C7.62641 4.30301 7.70016 4.48106 7.70016 4.66671C7.70016 4.85236 7.62641 5.03041 7.49514 5.16168C7.36386 5.29296 7.18581 5.36671 7.00016 5.36671ZM7.5835 9.70379C7.5835 9.8585 7.52204 10.0069 7.41264 10.1163C7.30325 10.2257 7.15487 10.2871 7.00016 10.2871C6.84545 10.2871 6.69708 10.2257 6.58768 10.1163C6.47829 10.0069 6.41683 9.8585 6.41683 9.70379V6.78712C6.41683 6.63241 6.47829 6.48404 6.58768 6.37465C6.69708 6.26525 6.84545 6.20379 7.00016 6.20379C7.15487 6.20379 7.30325 6.26525 7.41264 6.37465C7.52204 6.48404 7.5835 6.63241 7.5835 6.78712V9.70379ZM7.00016 0.583374C3.45641 0.583374 0.583496 3.45629 0.583496 7.00004C0.583496 10.5438 3.45641 13.4167 7.00016 13.4167C10.5439 13.4167 13.4168 10.5438 13.4168 7.00004C13.4168 3.45629 10.5439 0.583374 7.00016 0.583374Z" fill="currentColor"/>
		</symbol>
		<symbol id="question" viewBox="0 0 14 14">
			<path fill-rule="evenodd" clip-rule="evenodd" d="M9.1025 5.97629C8.93508 6.70487 8.43341 7.02571 8.0665 7.26079C7.68675 7.50346 7.5555 7.60496 7.5555 7.94854C7.5555 8.08778 7.50018 8.22131 7.40173 8.31977C7.30327 8.41823 7.16973 8.47354 7.0305 8.47354C6.89126 8.47354 6.75772 8.41823 6.65926 8.31977C6.56081 8.22131 6.5055 8.08778 6.5055 7.94854C6.5055 7.01229 7.08066 6.64479 7.50066 6.37587C7.83433 6.16296 8.01108 6.03754 8.07933 5.74121C8.13825 5.48396 8.09158 5.25646 7.93933 5.06512C7.73983 4.81487 7.38341 4.65271 7.0305 4.65271C6.46 4.65271 5.99566 5.11762 5.99566 5.68812C5.99566 5.82736 5.94035 5.9609 5.84189 6.05935C5.74344 6.15781 5.6099 6.21312 5.47066 6.21312C5.33142 6.21312 5.19789 6.15781 5.09943 6.05935C5.00098 5.9609 4.94566 5.82736 4.94566 5.68812C4.94628 5.13538 5.16613 4.60545 5.55698 4.21461C5.94783 3.82376 6.47775 3.60391 7.0305 3.60329C7.70075 3.60329 8.36341 3.91246 8.76066 4.41121C9.11183 4.85221 9.23316 5.40812 9.1025 5.97629ZM7.03983 10.4907C6.85418 10.4907 6.67613 10.417 6.54485 10.2857C6.41358 10.1544 6.33983 9.97636 6.33983 9.79071C6.33983 9.60506 6.41358 9.42701 6.54485 9.29573C6.67613 9.16446 6.85418 9.09071 7.03983 9.09071C7.22548 9.09071 7.40353 9.16446 7.5348 9.29573C7.66608 9.42701 7.73983 9.60506 7.73983 9.79071C7.73983 9.97636 7.66608 10.1544 7.5348 10.2857C7.40353 10.417 7.22548 10.4907 7.03983 10.4907ZM7.00016 0.583374C3.45583 0.583374 0.583496 3.45629 0.583496 7.00004C0.583496 10.5444 3.45583 13.4167 7.00016 13.4167C10.5439 13.4167 13.4168 10.5444 13.4168 7.00004C13.4168 3.45629 10.5439 0.583374 7.00016 0.583374Z" fill="currentColor"/>
		<symbol id="forward" viewBox="0 0 14 14">
			<path fill-rule="evenodd" clip-rule="evenodd" d="M2.24032 6.47903C2.08319 6.63653 2 6.83778 2 7.03903C2 7.24028 2.08319 7.44153 2.24032 7.59028L6.39974 11.5278C6.55564 11.6747 6.76668 11.7572 6.98668 11.7572C7.20668 11.7572 7.41772 11.6747 7.57362 11.5278L11.733 7.59028C11.8883 7.4427 11.9754 7.24292 11.9754 7.03466C11.9754 6.8264 11.8883 6.62662 11.733 6.47903C11.5771 6.33209 11.3661 6.2496 11.1461 6.2496C10.9261 6.2496 10.7151 6.33209 10.5592 6.47903L6.9913 9.86528L3.4142 6.47903C3.2583 6.33209 3.04726 6.2496 2.82726 6.2496C2.60726 6.2496 2.39622 6.33209 2.24032 6.47903ZM2.24032 2.47903C2.08319 2.63653 2 2.83778 2 3.03903C2 3.24028 2.08319 3.44153 2.24032 3.59028L6.39974 7.52778C6.55564 7.67472 6.76668 7.75722 6.98668 7.75722C7.20668 7.75722 7.41772 7.67472 7.57362 7.52778L11.733 3.59028C11.8883 3.4427 11.9754 3.24292 11.9754 3.03466C11.9754 2.8264 11.8883 2.62662 11.733 2.47903C11.5771 2.33209 11.3661 2.2496 11.1461 2.2496C10.9261 2.2496 10.7151 2.33209 10.5592 2.47903L6.9913 5.86528L3.4142 2.47903C3.2583 2.33209 3.04726 2.2496 2.82726 2.2496C2.60726 2.2496 2.39622 2.33209 2.24032 2.47903Z" fill="currentColor"/>
		</symbol>
		<symbol id="refresh" viewBox="0 0 14 14">
			<path fill-rule="evenodd" clip-rule="evenodd" d="M12.2308 7.21117C12.0479 7.17933 11.8599 7.22142 11.708 7.32818C11.5562 7.43495 11.453 7.59765 11.4211 7.7805C11.2395 8.82395 10.6949 9.76963 9.88354 10.4504C9.07219 11.1312 8.04632 11.5033 6.98718 11.501C4.50568 11.501 2.48676 9.48208 2.48676 7C2.48676 4.5185 4.50568 2.49958 6.98718 2.49958C8.11534 2.49958 9.17643 2.91608 10.0059 3.66858L9.42726 4.24725C9.35156 4.32266 9.29826 4.41761 9.2733 4.52151C9.24834 4.62541 9.2527 4.7342 9.2859 4.83577C9.31909 4.93734 9.37981 5.02772 9.46131 5.09683C9.54281 5.16595 9.64188 5.21109 9.74751 5.22725L12.2045 5.60642C12.2943 5.62025 12.386 5.61272 12.4723 5.58444C12.5586 5.55616 12.637 5.50793 12.7012 5.44365C12.7654 5.37938 12.8135 5.30087 12.8416 5.21452C12.8697 5.12817 12.8771 5.0364 12.8631 4.94667L12.4845 2.49025C12.4682 2.38469 12.4231 2.2857 12.354 2.20427C12.2848 2.12283 12.1945 2.06213 12.093 2.0289C11.9915 1.99567 11.8828 1.99121 11.7789 2.01601C11.675 2.04082 11.5801 2.09391 11.5045 2.16942L10.9958 2.67867C9.90868 1.66228 8.47546 1.09771 6.98718 1.09958C3.73393 1.09958 1.08676 3.74675 1.08676 7C1.08676 10.2538 3.73393 12.9004 6.98718 12.9004C9.86184 12.9004 12.306 10.8483 12.8001 8.02083C12.8319 7.83797 12.7898 7.64995 12.6831 7.49811C12.5763 7.34628 12.4136 7.24306 12.2308 7.21117" fill="currentColor"/>
		</symbol>
		<symbol id="arc" viewBox="0 0 24 24">
			<path fill-rule="evenodd" clip-rule="evenodd" d="M4 12a8 8 0 018-8V0C5.373 0 0 5.373 0 12h4zm2 5.291A7.962 7.962 0 014 12H0c0 3.042 1.135 5.824 3 7.938l3-2.647z" fill="currentColor"/>
		</symbol>
		<symbol id="download" viewBox="0 0 14 14">
			<path d="M6.53923 8.9838C6.66173 9.1063 6.83089 9.17047 6.99423 9.17047C7.15756 9.17047 7.32089 9.1063 7.44923 8.9838L10.5001 5.92713C10.7509 5.6763 10.7509 5.26797 10.5001 5.01714C10.2492 4.7663 9.84089 4.7663 9.59006 5.01714L7.63589 6.9713V1.62214C7.63589 1.2663 7.35006 0.980469 6.99423 0.980469C6.63839 0.980469 6.35256 1.2663 6.35256 1.62214V6.97714L4.39256 5.02297C4.14173 4.77214 3.73339 4.77214 3.48256 5.02297C3.23173 5.2738 3.23173 5.68214 3.48256 5.93297L6.53923 8.9838Z" fill="currentColor"/>
			<path d="M12.4717 7.63672C12.1158 7.63672 11.83 7.92255 11.83 8.27839V10.7342C11.83 11.1542 11.4917 11.4926 11.0717 11.4926H2.91667C2.49667 11.4926 2.15833 11.1542 2.15833 10.7342V8.27839C2.15833 7.92255 1.8725 7.63672 1.51667 7.63672C1.16083 7.63672 0.875 7.92255 0.875 8.27839V10.7342C0.875 11.8601 1.79083 12.7759 2.91667 12.7759H11.0717C12.1975 12.7759 13.1133 11.8601 13.1133 10.7342V8.27839C13.1133 7.92255 12.8275 7.63672 12.4717 7.63672Z" fill="currentColor"/>
		</symbol>
  </defs>
</svg>