<svg xmlns="http://www.w3.org/2000/svg" xmlns:xlink="http://www.w3.org/1999/xlink">
  <defs>
		<symbol id="chevron" viewBox="0 0 14 14">
			<path fill-rule="evenodd" clip-rule="evenodd" d="M2.275 5.03125C2.275 4.83 2.35375 4.62875 2.5025 4.47125C2.65008 4.32431 2.84986 4.24181 3.05813 4.24181C3.26639 4.24181 3.46617 4.32431 3.61375 4.47125L7 7.8575L10.3775 4.47125C10.5251 4.32431 10.7249 4.24181 10.9331 4.24181C11.1414 4.24181 11.3412 4.32431 11.4888 4.47125C11.6357 4.61883 11.7182 4.81861 11.7182 5.02687C11.7182 5.23513 11.6357 5.43491 11.4888 5.5825L7.55125 9.52C7.40367 9.66694 7.20389 9.74943 6.99563 9.74943C6.78737 9.74943 6.58758 9.66694 6.44 9.52L2.5025 5.5825C2.35375 5.43375 2.275 5.2325 2.275 5.03125Z" fill="currentColor"/>
		</symbol>
  </defs>
</svg>