<svg width="40" height="40" viewBox="0 0 40 40" fill="none" xmlns="http://www.w3.org/2000/svg">
<rect width="40" height="40" rx="20" fill="#003613"/>
<path fill-rule="evenodd" clip-rule="evenodd" d="M13.8598 30.7915H10.6667C10.3572 30.7915 10.0605 30.6686 9.84171 30.4498C9.62292 30.231 9.5 29.9343 9.5 29.6248V22.0112C9.5 21.7018 9.62292 21.405 9.84171 21.1862C10.0605 20.9674 10.3572 20.8445 10.6667 20.8445H13.8598C14.1693 20.8445 14.466 20.9674 14.6848 21.1862C14.9036 21.405 15.0265 21.7018 15.0265 22.0112V29.6248C15.0265 29.9343 14.9036 30.231 14.6848 30.4498C14.466 30.6686 14.1693 30.7915 13.8598 30.7915ZM21.5972 30.7915H18.404C18.0946 30.7915 17.7978 30.6686 17.579 30.4498C17.3602 30.231 17.2373 29.9343 17.2373 29.6248V16.4847C17.2373 16.1753 17.3602 15.8785 17.579 15.6597C17.7978 15.4409 18.0946 15.318 18.404 15.318H21.5972C21.9066 15.318 22.2033 15.4409 22.4221 15.6597C22.6409 15.8785 22.7638 16.1753 22.7638 16.4847V29.6248C22.7638 29.9343 22.6409 30.231 22.4221 30.4498C22.2033 30.6686 21.9066 30.7915 21.5972 30.7915ZM29.3333 30.7915H26.1402C25.8307 30.7915 25.534 30.6686 25.3152 30.4498C25.0964 30.231 24.9735 29.9343 24.9735 29.6248V10.9582C24.9735 10.6488 25.0964 10.352 25.3152 10.1332C25.534 9.91442 25.8307 9.7915 26.1402 9.7915H29.3333C29.6428 9.7915 29.9395 9.91442 30.1583 10.1332C30.3771 10.352 30.5 10.6488 30.5 10.9582V29.6248C30.5 29.9343 30.3771 30.231 30.1583 30.4498C29.9395 30.6686 29.6428 30.7915 29.3333 30.7915Z" fill="#01E953"/>
</svg>
