<svg width="150" height="150" viewBox="0 0 150 150" fill="none" xmlns="http://www.w3.org/2000/svg">
<circle cx="75" cy="75" r="75" fill="#7B2BF9"/>
<path d="M122.938 64.8239C121.101 56.1944 116.971 48.2204 110.982 41.7428C104.993 35.2651 97.3686 30.5237 88.9114 28.0184C80.4541 25.5131 71.4778 25.3367 62.9287 27.5079C54.3796 29.679 46.5745 34.1173 40.3363 40.3547C38.1108 42.5809 36.102 45.0137 34.3369 47.6202C33.8184 48.3136 33.3513 49.0441 32.9395 49.8057C29.5076 55.5516 27.2879 61.9393 26.417 68.5756C25.5461 75.2119 26.0425 81.9562 27.8756 88.3934C29.7086 94.8305 32.8396 100.824 37.0756 106.005C41.3116 111.187 46.5631 115.445 52.5066 118.52C58.4501 121.594 64.9599 123.419 71.6351 123.882C78.3103 124.346 85.0096 123.437 91.3204 121.212C97.6313 118.988 103.42 115.495 108.331 110.948C113.241 106.402 117.169 100.898 119.873 94.7751C120.167 94.1677 120.425 93.5439 120.647 92.9068C122.872 87.2064 124.009 81.1395 124 75.0201C124.001 71.6374 123.655 68.2635 122.968 64.9514C122.959 64.9089 122.951 64.8664 122.938 64.8239ZM105.944 42.4082C106.226 42.6754 106.506 42.9486 106.782 43.2248C111.049 47.4797 114.416 52.5506 116.682 58.1352C116.733 58.261 116.749 58.3982 116.729 58.5325C116.709 58.6668 116.654 58.7932 116.568 58.8987C116.482 59.0041 116.37 59.0846 116.243 59.1318C116.116 59.1791 115.978 59.1913 115.844 59.1672C114.407 58.9263 112.95 58.8247 111.493 58.8637C110.954 58.8749 110.429 58.6937 110.012 58.3527C109.595 58.0117 109.313 57.5331 109.217 57.0029C108.343 52.1006 107.079 47.5731 105.456 43.6209C105.363 43.3963 105.27 43.1732 105.175 42.9531C105.13 42.8516 105.122 42.7378 105.151 42.6309C105.181 42.5239 105.247 42.4305 105.337 42.3664C105.428 42.3023 105.537 42.2715 105.648 42.2791C105.759 42.2867 105.863 42.3323 105.944 42.4082ZM110.605 71.1681C110.603 71.0564 110.636 70.9467 110.7 70.8553C110.764 70.7639 110.856 70.6955 110.962 70.6601C111.068 70.6248 111.182 70.6244 111.289 70.659C111.395 70.6936 111.487 70.7614 111.552 70.8524C111.919 71.3684 112.273 71.8865 112.614 72.4065C113.065 73.0986 113.485 73.7867 113.874 74.4707C113.991 74.679 114.04 74.9193 114.013 75.1571C113.986 75.3949 113.884 75.6179 113.722 75.7942C113.197 76.3709 112.626 76.9679 112.009 77.5851C111.783 77.8112 111.554 78.0404 111.318 78.2635C111.253 78.3221 111.172 78.3604 111.085 78.374C110.999 78.3876 110.91 78.3758 110.83 78.34C110.749 78.3042 110.681 78.246 110.633 78.1724C110.585 78.0988 110.56 78.0129 110.56 77.9251C110.589 77.1875 110.61 76.4468 110.623 75.7031C110.648 74.1793 110.64 72.6676 110.601 71.1681H110.605ZM48.8938 38.3968C56.5025 32.9453 65.6322 30.025 74.9913 30.0492C77.4704 30.0489 79.9453 30.2519 82.3912 30.6563C82.5358 30.6804 82.6704 30.7458 82.7786 30.8448C82.8869 30.9437 82.9641 31.0719 83.001 31.2138C83.038 31.3558 83.033 31.5054 82.9867 31.6446C82.9404 31.7837 82.8547 31.9065 82.7401 31.998C80.3929 33.839 78.211 36.5634 76.281 40.0967C76.0529 40.5147 75.6897 40.8428 75.251 41.0276C74.8122 41.2123 74.3237 41.2426 73.8655 41.1136C67.4701 39.312 61.1763 38.4651 55.3621 38.6685C53.3214 38.7341 51.2883 38.9497 49.2792 39.3136C49.1659 39.332 49.0497 39.3118 48.9493 39.2562C48.8489 39.2006 48.7701 39.1128 48.7256 39.007C48.6811 38.9012 48.6735 38.7834 48.704 38.6728C48.7345 38.5621 48.8014 38.4649 48.8938 38.3968ZM42.4757 105.563C41.5319 103.78 42.7533 99.6441 48.9576 93.3697C49.1106 93.2153 49.2294 93.0303 49.306 92.8269C49.3827 92.6235 49.4156 92.4061 49.4026 92.1891C49.3896 91.9721 49.3309 91.7602 49.2304 91.5674C49.1299 91.3747 48.9899 91.2052 48.8195 91.0703C48.5706 90.8745 48.3248 90.6772 48.079 90.4799C47.7813 90.2385 47.4048 90.1159 47.022 90.1358C46.6393 90.1557 46.2775 90.3167 46.0064 90.5877L45.7636 90.832C42.6623 94.0193 40.4926 96.9637 39.2757 99.6152C39.1958 99.7849 39.0724 99.9304 38.918 100.037C38.7637 100.143 38.5839 100.207 38.3969 100.222C38.2099 100.236 38.0225 100.201 37.8536 100.119C37.6846 100.038 37.5403 99.9132 37.4352 99.7579C32.5857 92.4209 30.0113 83.8142 30.0354 75.0186C30.034 71.865 30.3615 68.7199 31.0125 65.6343C31.0318 65.5338 31.0844 65.4428 31.1619 65.3758C31.2393 65.3089 31.337 65.27 31.4392 65.2654C31.5415 65.2609 31.6422 65.2909 31.7253 65.3507C31.8084 65.4105 31.8689 65.4965 31.8971 65.5949C32.8287 68.6759 34.3475 71.8617 36.449 75.0823C39.2727 79.4201 42.9961 83.5893 47.4084 87.414C48.9151 88.7193 50.5067 89.9821 52.1651 91.2084C55.6211 93.7408 59.2668 96.0034 63.0699 97.976C64.7936 98.8715 66.4717 99.726 68.1908 100.5C68.6637 100.714 69.1747 100.832 69.6937 100.846C70.2128 100.86 70.7294 100.77 71.2132 100.582C72.0225 100.263 72.8388 99.9329 73.6622 99.5909C74.0939 99.4092 74.4463 99.0787 74.6554 98.6593C74.8644 98.24 74.9163 97.7595 74.8016 97.3052L74.7364 97.0381C73.383 91.3405 72.6304 84.9249 72.5409 78.2074C72.5409 78.1269 72.5409 78.045 72.5409 77.9645C72.5409 77.5972 72.5409 77.2284 72.5318 76.8611C72.5318 76.7443 72.5318 76.547 72.5318 76.4286C72.5318 76.383 72.5318 76.336 72.5318 76.2905C72.5318 75.87 72.5318 75.4511 72.5454 75.0292C72.5652 73.8757 72.6076 72.7313 72.6668 71.5976C73.0856 63.4913 74.4587 55.8722 76.6467 49.4643C76.7436 49.1797 76.7236 48.8682 76.591 48.5984C76.4584 48.3286 76.2241 48.1225 75.9396 48.0254C75.361 47.8231 74.7834 47.6338 74.2069 47.4578C73.9263 47.37 73.6226 47.3953 73.3604 47.5282C73.0982 47.6612 72.8984 47.8914 72.8034 48.1696C70.4333 55.1285 68.9722 63.385 68.5807 72.1212C68.5572 72.6669 68.3979 73.1981 68.1174 73.6666C67.8368 74.1352 67.4438 74.5263 66.9739 74.8046C61.8015 77.872 57.0508 81.123 52.9465 84.3998C52.5312 84.7297 52.0138 84.9042 51.4835 84.8931C50.9533 84.882 50.4436 84.6861 50.0424 84.3391C45.929 80.7724 42.4666 76.9021 39.8492 72.877C34.7071 64.9756 33.4766 57.5341 36.4095 51.9321L36.4323 51.8927C36.8045 51.2734 37.1924 50.6628 37.596 50.0607C40.9569 45.6107 47.2127 43.032 55.5001 42.7406C56.0251 42.7224 56.5541 42.7133 57.0872 42.7133C62.1762 42.7133 67.637 43.5526 73.1918 45.1554L73.5575 45.2631L73.8382 45.3451C75.1218 45.7296 76.4085 46.1535 77.6982 46.617L77.7892 46.6503C78.124 46.7718 78.4593 46.8957 78.7952 47.0222L79.1108 47.1421L79.4142 47.259C82.1786 48.3302 84.882 49.5528 87.512 50.9213C92.5193 53.5046 97.23 56.6263 101.561 60.2312C93.6859 62.0358 84.5321 65.5175 75.3297 70.2119C75.1206 70.318 74.943 70.4772 74.8146 70.6735C74.6863 70.8698 74.6117 71.0963 74.5983 71.3305C74.5665 71.9011 74.524 73.0485 74.4936 73.9607C74.4892 74.0912 74.5191 74.2206 74.5803 74.336C74.6416 74.4513 74.7321 74.5485 74.8427 74.6178C74.9534 74.6871 75.0803 74.7261 75.2107 74.731C75.3412 74.7358 75.4706 74.7062 75.5861 74.6452C84.6899 69.8598 93.7936 66.2824 101.602 64.3913C102.305 64.2202 102.92 63.7934 103.327 63.194C103.734 62.5945 103.903 61.8652 103.802 61.1479C103.657 60.1077 103.496 59.0848 103.318 58.079C103.099 56.8132 102.411 55.6763 101.392 54.8948C97.6148 52.0267 93.5985 49.4878 89.3874 47.306C86.5268 45.8173 83.5835 44.4931 80.5719 43.3401C80.4232 43.2832 80.2884 43.195 80.1768 43.0815C80.0651 42.9679 79.9792 42.8316 79.9248 42.6819C79.8704 42.5322 79.8488 42.3726 79.8615 42.2138C79.8742 42.055 79.9209 41.9008 79.9984 41.7617C83.0436 36.3099 86.6745 33.2623 90.1976 33.2623H90.3069C94.4719 33.3367 98.6232 37.6729 101.699 45.1614C103.254 48.9558 104.46 53.3224 105.284 58.0729C105.28 58.0685 105.276 58.0644 105.272 58.0608C105.624 60.0885 105.906 62.183 106.117 64.3321L106.061 64.3655L106.137 64.4414C106.491 68.1589 106.634 71.8935 106.563 75.6272C106.519 78.0556 106.39 80.4415 106.182 82.7804C100.611 87.2835 93.7238 91.7654 86.154 95.7784C83.6657 97.0973 81.1773 98.3251 78.7193 99.4559L78.6055 99.5075L78.0396 99.767C75.9993 100.69 73.9823 101.542 71.9886 102.324L71.6517 102.453L71.233 102.616C70.8992 102.744 70.5669 102.87 70.2361 102.994L69.9615 103.097C69.5594 103.249 69.1588 103.391 68.7598 103.534C68.7112 103.552 68.6611 103.572 68.608 103.589C64.3475 105.106 60.2887 106.252 56.5895 106.966C47.6436 108.693 43.4316 107.372 42.4757 105.563ZM54.7946 88.1092C58.7562 84.8824 63.3977 81.6633 68.4882 78.6157C68.5974 85.1298 69.3121 91.383 70.576 97.032C68.6874 96.2225 66.8085 95.3352 64.9392 94.3699C61.4064 92.5388 58.0154 90.4461 54.7946 88.1092ZM80.7904 119.616C78.8672 119.863 76.9302 119.986 74.9913 119.986C66.3842 120.01 57.9537 117.545 50.7146 112.888C50.6081 112.817 50.5265 112.715 50.4815 112.595C50.4366 112.476 50.4305 112.345 50.4641 112.222C50.4977 112.099 50.5693 111.989 50.6688 111.909C50.7683 111.829 50.8905 111.782 51.018 111.775C51.1394 111.775 51.2532 111.765 51.3534 111.757C53.3643 111.614 55.3644 111.347 57.3421 110.956C61.9501 110.068 67.0725 108.547 72.4362 106.498C72.6678 106.411 72.9243 106.418 73.151 106.517C73.3777 106.616 73.5567 106.8 73.65 107.029V107.039C75.7287 112.1 78.2869 115.926 81.1591 118.359C81.2642 118.449 81.3411 118.568 81.3805 118.7C81.4199 118.833 81.4202 118.974 81.3812 119.107C81.3422 119.24 81.2658 119.359 81.1609 119.449C81.0561 119.539 80.9274 119.597 80.7904 119.616ZM99.7945 107.609C96.5854 113.923 92.6329 117.467 88.8017 117.396C84.6383 117.321 80.4854 112.985 77.4114 105.496C77.318 105.268 77.3179 105.011 77.4113 104.782C77.5046 104.553 77.6838 104.37 77.9106 104.272L78.0092 104.229C78.2113 104.141 78.4374 104.126 78.6495 104.185C84.4001 105.8 90.0671 106.642 95.3777 106.642C95.9543 106.642 96.5268 106.633 97.0953 106.614C97.7598 106.589 98.4138 106.552 99.0571 106.501C99.1918 106.492 99.3263 106.519 99.4472 106.579C99.5682 106.639 99.6712 106.73 99.746 106.842C99.8207 106.954 99.8646 107.084 99.8731 107.219C99.8816 107.354 99.8545 107.488 99.7945 107.609ZM101.178 102.179C99.7765 102.379 98.3649 102.503 96.9496 102.551C93.1538 102.656 89.3577 102.351 85.6275 101.64C85.523 101.621 85.4272 101.569 85.3535 101.493C85.2798 101.416 85.232 101.318 85.2169 101.213C85.2018 101.108 85.2202 101.001 85.2693 100.907C85.3185 100.812 85.3961 100.736 85.491 100.688C86.3447 100.257 87.1985 99.8151 88.0522 99.3618C93.77 96.3505 99.27 92.9424 104.512 89.1625C104.593 89.1034 104.691 89.07 104.791 89.0665C104.892 89.0631 104.991 89.0896 105.077 89.1429C105.162 89.1961 105.23 89.2736 105.271 89.3655C105.312 89.4574 105.325 89.5595 105.308 89.6588C104.684 93.5261 103.75 97.3369 102.514 101.054C102.416 101.347 102.24 101.606 102.005 101.805C101.769 102.003 101.483 102.133 101.178 102.179ZM107.813 105.745C107.475 106.107 107.129 106.465 106.777 106.808C106.17 107.421 105.544 108.013 104.897 108.585C104.811 108.661 104.702 108.705 104.587 108.71C104.473 108.715 104.36 108.681 104.267 108.613C104.175 108.544 104.109 108.447 104.081 108.335C104.052 108.224 104.062 108.107 104.11 108.002C104.175 107.863 104.241 107.722 104.305 107.579C104.574 106.985 104.834 106.378 105.087 105.758C105.117 105.685 105.163 105.621 105.222 105.569C105.281 105.518 105.351 105.481 105.427 105.462C106.064 105.299 106.685 105.12 107.29 104.926C107.396 104.888 107.512 104.888 107.619 104.925C107.725 104.961 107.816 105.033 107.877 105.128C107.937 105.223 107.964 105.336 107.953 105.448C107.941 105.56 107.892 105.665 107.813 105.745ZM116.847 91.4786C116.632 92.029 116.405 92.5749 116.168 93.1162C116.131 93.1906 116.096 93.268 116.057 93.3393C114.575 96.1942 112.088 98.4405 108.765 100.005C108.598 100.084 108.412 100.114 108.23 100.091C108.047 100.067 107.874 99.9915 107.733 99.8728C107.592 99.7541 107.488 99.5974 107.433 99.4212C107.379 99.245 107.376 99.0569 107.425 98.8791C108.572 94.7054 109.401 90.4505 109.904 86.1513C110.007 85.313 110.418 84.5431 111.057 83.9915C112.423 82.8092 113.701 81.6284 114.875 80.4552L114.887 80.4415C115.02 80.3095 115.184 80.2141 115.364 80.1647C115.545 80.1152 115.735 80.1133 115.916 80.1591C116.097 80.205 116.263 80.297 116.398 80.4263C116.533 80.5556 116.633 80.7177 116.687 80.8968C117.846 84.7549 117.911 88.3475 116.847 91.4801V91.4786ZM117.747 70.4122C117.671 70.5508 117.56 70.6671 117.425 70.7498C117.291 70.8325 117.137 70.8786 116.979 70.8837C116.821 70.8887 116.664 70.8525 116.524 70.7786C116.384 70.7048 116.266 70.5957 116.181 70.4623L116.007 70.1906C114.618 68.0696 113.081 66.05 111.406 64.147C111.312 64.0385 111.252 63.9053 111.231 63.7632C111.211 63.6212 111.232 63.4762 111.291 63.3456C111.351 63.2151 111.447 63.1045 111.568 63.027C111.688 62.9494 111.829 62.9083 111.972 62.9085H111.988C116.014 62.9085 118.125 63.9026 118.77 65.1183C119.296 66.1337 119.135 67.911 117.747 70.4137V70.4122ZM119.923 76.3557C119.921 76.4201 119.898 76.4819 119.856 76.531C119.814 76.5801 119.757 76.6134 119.694 76.6254C119.63 76.6375 119.565 76.6275 119.508 76.5972C119.451 76.567 119.407 76.5182 119.381 76.4589L119.23 76.0962C119.181 75.9872 119.163 75.8674 119.176 75.749C119.19 75.6306 119.234 75.5178 119.305 75.4223L119.469 75.2068C119.667 74.9503 119.95 74.9882 119.95 75.2736C119.944 75.6485 119.935 75.9733 119.923 76.3572V76.3557Z" fill="white"/>
</svg>
